<svg xmlns="http://www.w3.org/2000/svg" xmlns:xlink="http://www.w3.org/1999/xlink" viewBox="0 0 7 13"><defs><path id="havga" d="M1358.75 579.03h-1.62c-1.82 0-3 1.23-3 3.13v1.45h-1.63a.26.26 0 0 0-.25.26v2.1c0 .14.11.25.25.25h1.63v5.3c0 .14.12.25.26.25h2.12c.14 0 .26-.11.26-.26v-5.29h1.9c.14 0 .25-.11.25-.26v-2.1a.27.27 0 0 0-.07-.18.25.25 0 0 0-.18-.07h-1.9v-1.23c0-.59.13-.89.88-.89h1.1c.14 0 .25-.11.25-.26v-1.94a.26.26 0 0 0-.25-.26z"/></defs><g><g transform="translate(-1352 -579)"><use xlink:href="#havga"/></g></g></svg>