<svg xmlns="http://www.w3.org/2000/svg" xmlns:xlink="http://www.w3.org/1999/xlink" viewBox="0 0 12 11"><defs><path id="b4vfa" d="M1394.67 580.72c-.48.3-1 .52-1.57.64a2.37 2.37 0 0 0-1.8-.84c-1.35 0-2.45 1.2-2.45 2.66 0 .2.02.4.06.6a6.84 6.84 0 0 1-5.07-2.77 2.8 2.8 0 0 0 .76 3.54c-.4-.02-.78-.14-1.12-.33v.03c0 1.28.85 2.35 1.98 2.6a2.32 2.32 0 0 1-1.11.04 2.5 2.5 0 0 0 2.3 1.84 4.72 4.72 0 0 1-3.65 1.1 6.61 6.61 0 0 0 3.77 1.2c4.53 0 7-4.04 7-7.55v-.34c.48-.38.9-.84 1.23-1.37-.44.2-.92.35-1.41.41.5-.32.9-.85 1.08-1.46z"/></defs><g><g transform="translate(-1383 -580)"><use xlink:href="#b4vfa"/></g></g></svg>