<svg version="1.1" id="Слой_1" xmlns="http://www.w3.org/2000/svg" x="0" y="0" viewBox="0 0 100 100" xml:space="preserve"><style>.st0{fill:#e3ad3e}</style><path class="st0" d="M51 9C35.4 9 22.8 21.6 22.8 37.2S51 93 51 93s28.2-40.2 28.2-55.8S66.6 9 51 9z"/><path d="M51 96.5l-1.6-2.3c-1.2-1.7-28.6-40.9-28.6-56.9C20.8 20.6 34.3 7 51 7s30.2 13.6 30.2 30.2c0 16-27.4 55.3-28.6 56.9L51 96.5zM51 11c-14.5 0-26.2 11.8-26.2 26.2 0 6 4.8 17.3 13.8 32.7 4.9 8.4 9.9 15.9 12.4 19.5 2.5-3.7 7.5-11.2 12.4-19.5 9-15.4 13.8-26.7 13.8-32.7C77.2 22.8 65.5 11 51 11z"/><path d="M63.4 30.5c-.7 0-1.3.1-2 .2l-3.6-8.2h3c.8 0 1.4-.6 1.4-1.4 0-.8-.6-1.4-1.4-1.4h-5.1c-.5 0-.9.2-1.1.6-.3.4-.3.9-.1 1.3l1.9 4.3H44.6l-.6-3.1c-.2-.7-.9-1.2-1.6-1.1-.7.2-1.2.9-1.1 1.6l1.1 5.1L41 31c-2.1-.7-4.3-.6-6.2.3-4.2 1.9-6.1 7-4.1 11.2.9 2 2.6 3.6 4.7 4.4.9.4 1.9.5 2.9.5 1.2 0 2.4-.3 3.5-.8 2.5-1.1 4.1-3.3 4.7-5.8.1 0 .3-.1.4-.2L57 33.5c-1.2 1.5-2 3.4-2 5.4 0 4.6 3.8 8.4 8.4 8.4 4.6 0 8.4-3.8 8.4-8.4s-3.7-8.4-8.4-8.4zM40.7 44.1c-1.4.6-2.9.7-4.3.2-1.4-.5-2.6-1.6-3.2-3-1.3-2.8-.1-6.2 2.8-7.5 1.2-.5 2.5-.7 3.7-.4l-2.8 5c-.4.7-.1 1.5.5 1.9.2.1.4.2.7.2.5 0 .9-.3 1.2-.7l2.8-5c.6.5 1 1.1 1.4 1.9 1.2 2.7 0 6.1-2.8 7.4zm4.6-15.2l.1-.2h12.3l.3.8-11 7.7-1.7-8.3zm18.1 15.7c-3.1 0-5.7-2.5-5.7-5.7 0-1.9.9-3.5 2.3-4.6l1.8 4.3c.2.5.7.8 1.3.8.2 0 .4 0 .5-.1.7-.3 1-1.1.7-1.8l-1.8-4.2c.3 0 .6-.1.9-.1 3.1 0 5.7 2.5 5.7 5.7s-2.5 5.7-5.7 5.7z"/><path class="st0" d="M250-17c-15.6 0-28.2 12.6-28.2 28.2S250 67 250 67s28.2-40.2 28.2-55.8S265.6-17 250-17z"/><path d="M250 70.5l-1.6-2.3c-1.2-1.7-28.6-40.9-28.6-56.9C219.8-5.4 233.3-19 250-19s30.2 13.6 30.2 30.2c0 16-27.4 55.3-28.6 56.9l-1.6 2.4zm0-85.5c-14.5 0-26.2 11.8-26.2 26.2 0 6 4.8 17.3 13.8 32.7 4.9 8.4 9.9 15.9 12.4 19.5 2.5-3.7 7.5-11.2 12.4-19.5 9-15.4 13.8-26.7 13.8-32.7C276.2-3.2 264.5-15 250-15z"/><path d="M240 29.5c-1 0-1.9-.3-2.8-.9-1.5-1.1-2.2-2.8-1.9-4.6l1.4-8.4-6.1-5.9c-1.3-1.3-1.7-3.1-1.2-4.8.6-1.7 2-2.9 3.8-3.2l8.4-1.2 3.8-7.6c.8-1.6 2.4-2.6 4.2-2.6s3.4 1 4.2 2.6l3.8 7.6 8.4 1.2c1.8.3 3.2 1.5 3.8 3.2.6 1.7.1 3.6-1.2 4.8l-6.1 5.9L264 24c.3 1.8-.4 3.5-1.9 4.6-1.4 1-3.4 1.2-4.9.4l-7.5-4-7.5 4c-.7.3-1.5.5-2.2.5zm9.7-35.7c-.5 0-.9.2-1.1.7l-4 8c-.4.8-1.1 1.3-2 1.4l-8.9 1.3c-.5.1-.8.4-1 .8s0 .9.3 1.2l6.4 6.3c.6.6.9 1.5.7 2.3l-1.5 8.8c-.1.5.1.9.5 1.2.4.3.9.3 1.3.1l7.9-4.2c.8-.4 1.7-.4 2.4 0l7.9 4.2c.4.2.9.2 1.3-.1.4-.3.6-.7.5-1.2l-1.5-8.8c-.1-.8.1-1.7.7-2.3l6.4-6.3c.3-.3.4-.8.3-1.2-.1-.4-.5-.7-1-.8l-8.9-1.3c-.8-.1-1.6-.7-2-1.4l-4-8c.1-.5-.3-.7-.7-.7zm-.5 31zM237.1 16z"/><path class="st0" d="M188 50.8c-14.9 0-27 12.1-27 27s27 53.4 27 53.4 27-38.5 27-53.4-12.1-27-27-27z"/><path d="M188 136.5l-1.6-2.3c-1.2-1.7-28.6-40.9-28.6-56.9 0-16.7 13.6-30.2 30.2-30.2s30.2 13.6 30.2 30.2c0 16-27.4 55.3-28.6 56.9l-1.6 2.3zm0-85.5c-14.5 0-26.2 11.8-26.2 26.2 0 6 4.8 17.3 13.8 32.7 4.9 8.4 9.9 15.9 12.4 19.5 2.5-3.7 7.5-11.2 12.4-19.5 9-15.4 13.8-26.7 13.8-32.7 0-14.4-11.7-26.2-26.2-26.2z"/><path d="M205.7 75.8c-1.1.8-2.6.8-3.1.6l-.2-.1-.9 2.3.2.1c.5.2 1 .3 1.6.3 1.3 0 2.7-.4 3.8-1.1 1.5-1 2.4-2.6 2.4-4.5 0-3-2.5-5.5-5.5-5.5h-.2v2.5h.2c1.6 0 2.9 1.3 2.9 2.9 0 1.1-.4 1.9-1.2 2.5z"/><path d="M201.2 80h-.1l-1.7 2.1.4.1c3.4.5 5.2 1.3 5.9 1.6-1.4.8-7 2.2-17.4 2.2h-.2c-10.6 0-16.2-1.5-17.6-2.3.6-.4 2.5-1.1 7.3-1.7 2.6 2.3 6 3.5 10.2 3.5 4.6 0 8.3-1.4 10.9-4.1 3.4-3.5 4.9-9 4.7-16.2v-.4c0-4.1-13-4.3-15.6-4.3s-15.6.2-15.6 4.3v.4c-.2 6.2.9 11.1 3.3 14.6-5.4.8-8 2.1-8 4 0 1.7 2 2.9 6.6 3.8 3.7.7 8.6 1.1 13.8 1.1h.2c5.1 0 9.9-.4 13.6-1 4.6-.8 6.7-2 6.7-3.7-.1-1.9-2.6-3.2-7.4-4zm-13.4-11c1.5 0 9.1-.1 13.1-1.7-.1 5.5-1.4 9.6-4 12.3-2.2 2.2-5.2 3.4-9.1 3.4s-6.9-1.1-9.1-3.4c-2.6-2.7-3.9-6.8-4-12.3 4 1.6 11.6 1.7 13.1 1.7zm-12.7-4.3c1.2-.7 5.3-1.8 12.8-1.8 7.4 0 11.5 1.1 12.8 1.8-1.2.7-5.3 1.8-12.8 1.8-7.5 0-11.6-1.1-12.8-1.8z"/></svg>