<?xml version="1.0" encoding="utf-8"?>
<!-- Generator: Adobe Illustrator 22.1.0, SVG Export Plug-In . SVG Version: 6.00 Build 0)  -->
<svg version="1.1" id="Слой_1" xmlns="http://www.w3.org/2000/svg" xmlns:xlink="http://www.w3.org/1999/xlink" x="0px" y="0px"
	 viewBox="0 0 122.9 82" style="enable-background:new 0 0 122.9 82;" xml:space="preserve">
<style type="text/css">
	.st0{opacity:0.5;fill:#FBAE17;enable-background:new    ;}
</style>
<g>
	<path d="M107.4,22v6c5.2,0,9.5,4.3,9.5,9.5c0,3.4-1.4,6-4.1,7.8c-3.5,2.3-8,2.6-9.8,1.9l-2.2,5.6c1.3,0.5,2.9,0.8,4.6,0.8
		c3.6,0,7.7-1.2,10.8-3.3c4.3-2.9,6.7-7.5,6.7-12.8C122.9,29,115.9,22,107.4,22z"/>
	<path d="M98.9,58l-4,5c11.8,1.8,17.5,4.5,18.8,5.6c-3,2.7-20.9,7.4-53.8,7.4C27,75.9,9.1,71.2,6.2,68.4c1.5-1.3,7.4-4,23.1-5.8
		C36.9,69.5,47,73,59.4,73c13.4,0,24.2-4.1,31.9-12.1c9.9-10.2,14.5-26.3,13.6-47.6c0-0.6,0-1,0-1.3c0-11.7-40.8-12-45.5-12
		S13.9,0.3,13.9,12c0,0.3,0,0.7,0,1.3C13.2,32.2,16.7,47,24.4,57.2C15.1,58.5,0,61.3,0,68.4c0,4.7,5.9,7.9,19.1,10.4
		C30,80.8,44.5,82,59.9,82s29.9-1.1,40.9-3C114,76.6,120,73.4,120,68.7C119.9,66.8,119.1,61.6,98.9,58z M59.4,6
		c23.5,0,36.7,3.8,39.2,6c-2.6,2.2-15.8,6-39.2,6s-36.7-3.8-39.2-6C22.7,9.8,35.9,6,59.4,6z M59.4,24c3.6,0,28.1-0.2,39.6-5.5
		c-0.1,17.1-4.1,30-12,38.2C80.4,63.5,71.2,67,59.4,67s-21-3.5-27.6-10.3c-7.9-8.2-12-21.1-12-38.2C31.3,23.8,55.8,24,59.4,24z"/>
</g>
</svg>
