<?xml version="1.0" encoding="utf-8"?>
<!-- Generator: Adobe Illustrator 21.1.0, SVG Export Plug-In . SVG Version: 6.00 Build 0)  -->
<svg version="1.1" id="Слой_1" xmlns="http://www.w3.org/2000/svg" xmlns:xlink="http://www.w3.org/1999/xlink" x="0px" y="0px"
	 viewBox="0 0 100 100" style="enable-background:new 0 0 100 100;" xml:space="preserve">
<style type="text/css">
	.st0{fill:#E3AD3E;}
</style>
<g>
	<g>
		<path class="st0" d="M49,9.8c-14.9,0-27,12.1-27,27s27,53.4,27,53.4s27-38.5,27-53.4S63.9,9.8,49,9.8z"/>
		<path d="M49,95.5l-1.6-2.3c-1.2-1.7-28.6-40.9-28.6-56.9C18.8,19.6,32.3,6,49,6s30.2,13.6,30.2,30.2c0,16-27.4,55.3-28.6,56.9
			L49,95.5z M49,10c-14.5,0-26.2,11.8-26.2,26.2c0,6,4.8,17.3,13.8,32.7c4.9,8.4,9.9,15.9,12.4,19.5c2.5-3.7,7.5-11.2,12.4-19.5
			c9-15.4,13.8-26.7,13.8-32.7C75.2,21.8,63.5,10,49,10z"/>
	</g>
	<g>
		<path d="M66.7,34.8c-1.1,0.8-2.6,0.8-3.1,0.6l-0.2-0.1l-0.9,2.3l0.2,0.1c0.5,0.2,1,0.3,1.6,0.3c1.3,0,2.7-0.4,3.8-1.1
			c1.5-1,2.4-2.6,2.4-4.5c0-3-2.5-5.5-5.5-5.5h-0.2v2.5H65c1.6,0,2.9,1.3,2.9,2.9C67.9,33.4,67.5,34.2,66.7,34.8z"/>
		<path d="M62.2,39L62,39l-1.7,2.1l0.4,0.1c3.4,0.5,5.2,1.3,5.9,1.6c-1.4,0.8-7,2.2-17.4,2.2c-0.1,0-0.1,0-0.2,0
			c-10.6,0-16.2-1.5-17.6-2.3c0.6-0.4,2.5-1.1,7.3-1.7c2.6,2.3,6,3.5,10.2,3.5c4.6,0,8.3-1.4,10.9-4.1c3.4-3.5,4.9-9,4.7-16.2
			c0-0.2,0-0.3,0-0.4c0-4.1-13-4.3-15.6-4.3s-15.6,0.2-15.6,4.3c0,0.1,0,0.2,0,0.3l0,0.1c-0.2,6.2,0.9,11.1,3.3,14.6
			c-5.4,0.8-8,2.1-8,4c0,1.7,2,2.9,6.6,3.8c3.7,0.7,8.6,1.1,13.8,1.1c0.1,0,0.1,0,0.2,0c5.1,0,9.9-0.4,13.6-1c4.6-0.8,6.7-2,6.7-3.7
			C69.5,41.1,67,39.8,62.2,39z M48.8,28c1.5,0,9.1-0.1,13.1-1.7c-0.1,5.5-1.4,9.6-4,12.3c-2.2,2.2-5.2,3.4-9.1,3.4s-6.9-1.1-9.1-3.4
			c-2.6-2.7-3.9-6.8-4-12.3C39.7,27.9,47.3,28,48.8,28z M36.1,23.7c1.2-0.7,5.3-1.8,12.8-1.8c7.4,0,11.5,1.1,12.8,1.8
			c-1.2,0.7-5.3,1.8-12.8,1.8C41.4,25.5,37.3,24.4,36.1,23.7z"/>
	</g>
</g>
</svg>
