<svg version="1.1" id="Слой_1" xmlns="http://www.w3.org/2000/svg" x="0" y="0" viewBox="0 0 122.9 82" xml:space="preserve"><style/><path d="M107.4 22v6c5.2 0 9.5 4.3 9.5 9.5 0 3.4-1.4 6-4.1 7.8-3.5 2.3-8 2.6-9.8 1.9l-2.2 5.6c1.3.5 2.9.8 4.6.8 3.6 0 7.7-1.2 10.8-3.3 4.3-2.9 6.7-7.5 6.7-12.8 0-8.5-7-15.5-15.5-15.5z"/><path d="M98.9 58l-4 5c11.8 1.8 17.5 4.5 18.8 5.6-3 2.7-20.9 7.4-53.8 7.4-32.9-.1-50.8-4.8-53.7-7.6 1.5-1.3 7.4-4 23.1-5.8C36.9 69.5 47 73 59.4 73c13.4 0 24.2-4.1 31.9-12.1 9.9-10.2 14.5-26.3 13.6-47.6V12C104.9.3 64.1 0 59.4 0S13.9.3 13.9 12v1.3c-.7 18.9 2.8 33.7 10.5 43.9C15.1 58.5 0 61.3 0 68.4c0 4.7 5.9 7.9 19.1 10.4C30 80.8 44.5 82 59.9 82s29.9-1.1 40.9-3C114 76.6 120 73.4 120 68.7c-.1-1.9-.9-7.1-21.1-10.7zM59.4 6c23.5 0 36.7 3.8 39.2 6-2.6 2.2-15.8 6-39.2 6s-36.7-3.8-39.2-6c2.5-2.2 15.7-6 39.2-6zm0 18c3.6 0 28.1-.2 39.6-5.5-.1 17.1-4.1 30-12 38.2C80.4 63.5 71.2 67 59.4 67s-21-3.5-27.6-10.3c-7.9-8.2-12-21.1-12-38.2 11.5 5.3 36 5.5 39.6 5.5z"/></svg>