<svg version="1.1" id="Слой_1" xmlns="http://www.w3.org/2000/svg" x="0" y="0" viewBox="0 0 100 100" xml:space="preserve"><path d="M49 9.8c-14.9 0-27 12.1-27 27s27 53.4 27 53.4 27-38.5 27-53.4-12.1-27-27-27z" fill="#e3ad3e"/><path d="M49 95.5l-1.6-2.3c-1.2-1.7-28.6-40.9-28.6-56.9C18.8 19.6 32.3 6 49 6s30.2 13.6 30.2 30.2c0 16-27.4 55.3-28.6 56.9L49 95.5zM49 10c-14.5 0-26.2 11.8-26.2 26.2 0 6 4.8 17.3 13.8 32.7 4.9 8.4 9.9 15.9 12.4 19.5 2.5-3.7 7.5-11.2 12.4-19.5 9-15.4 13.8-26.7 13.8-32.7C75.2 21.8 63.5 10 49 10z"/><path d="M66.7 34.8c-1.1.8-2.6.8-3.1.6l-.2-.1-.9 2.3.2.1c.5.2 1 .3 1.6.3 1.3 0 2.7-.4 3.8-1.1 1.5-1 2.4-2.6 2.4-4.5 0-3-2.5-5.5-5.5-5.5h-.2v2.5h.2c1.6 0 2.9 1.3 2.9 2.9 0 1.1-.4 1.9-1.2 2.5z"/><path d="M62.2 39H62l-1.7 2.1.4.1c3.4.5 5.2 1.3 5.9 1.6-1.4.8-7 2.2-17.4 2.2H49c-10.6 0-16.2-1.5-17.6-2.3.6-.4 2.5-1.1 7.3-1.7 2.6 2.3 6 3.5 10.2 3.5 4.6 0 8.3-1.4 10.9-4.1 3.4-3.5 4.9-9 4.7-16.2v-.4c0-4.1-13-4.3-15.6-4.3s-15.6.2-15.6 4.3v.4c-.2 6.2.9 11.1 3.3 14.6-5.4.8-8 2.1-8 4 0 1.7 2 2.9 6.6 3.8 3.7.7 8.6 1.1 13.8 1.1h.2c5.1 0 9.9-.4 13.6-1 4.6-.8 6.7-2 6.7-3.7 0-1.9-2.5-3.2-7.3-4zM48.8 28c1.5 0 9.1-.1 13.1-1.7-.1 5.5-1.4 9.6-4 12.3-2.2 2.2-5.2 3.4-9.1 3.4s-6.9-1.1-9.1-3.4c-2.6-2.7-3.9-6.8-4-12.3 4 1.6 11.6 1.7 13.1 1.7zm-12.7-4.3c1.2-.7 5.3-1.8 12.8-1.8 7.4 0 11.5 1.1 12.8 1.8-1.2.7-5.3 1.8-12.8 1.8-7.5 0-11.6-1.1-12.8-1.8z"/></svg>