<svg version="1.1" id="Слой_1" xmlns="http://www.w3.org/2000/svg" x="0" y="0" viewBox="0 0 70 70" xml:space="preserve"><path d="M60 5.9c-.7-1-2-1.2-3-.5-4.2 3-7.3 6.1-9.9 9.6H18.3C13.2 15 9 19.2 9 24.3v31.4c0 5.1 4.2 9.3 9.3 9.3h31.4c5.1 0 9.3-4.2 9.3-9.3V24.3c0-4.2-2.8-7.8-6.7-8.9 2-2.3 4.3-4.4 7.2-6.5 1-.7 1.2-2.1.5-3zM49.7 19.3c2.8 0 5 2.2 5 5v31.4c0 2.8-2.2 5-5 5H18.3c-2.8 0-5-2.2-5-5V24.3c0-2.8 2.2-5 5-5h26.1c-3.6 6.4-6.3 14.5-10.2 26.3-.3.8-.6 1.7-.8 2.5L20.8 29.5c-.7-1-2-1.2-3-.6-1 .7-1.2 2-.6 3l15 22.1c.4.6 1.1.9 1.8.9h.3c.8-.1 1.5-.7 1.7-1.4.8-2.3 1.5-4.5 2.2-6.6 4.4-13.2 7.1-21.4 11.2-27.6h.3z"/></svg>