<svg version="1.1" id="Слой_1" xmlns="http://www.w3.org/2000/svg" x="0" y="0" viewBox="0 0 140 120" xml:space="preserve"><style/><path d="M97.6 53.7c-1.5 0-2.9.2-4.3.5l-7.8-18H92c1.7 0 3-1.3 3-3s-1.3-3-3-3H80.9c-1 0-2 .5-2.5 1.4s-.6 1.9-.2 2.8l4.1 9.4H56.5l-1.5-7c-.3-1.6-1.9-2.7-3.5-2.3-1.6.3-2.7 1.9-2.3 3.5l2.3 11.2-3 5.5c-4.5-1.5-9.3-1.3-13.7.7-9.2 4.3-13.3 15.2-9 24.5 2.1 4.5 5.7 7.9 10.4 9.6 2.1.8 4.2 1.1 6.4 1.1 2.6 0 5.3-.6 7.7-1.7 5.4-2.5 9-7.2 10.2-12.6.3-.1.6-.2.8-.4l22.3-15.6c-2.7 3.2-4.4 7.4-4.4 11.9 0 10.2 8.3 18.4 18.4 18.4 10.2 0 18.4-8.3 18.4-18.4s-8.3-18.5-18.4-18.5zM47.7 83.4c-3 1.4-6.4 1.5-9.5.4s-5.6-3.4-7-6.5c-2.9-6.2-.1-13.6 6.1-16.5 2.6-1.2 5.4-1.5 8.2-.8l-6 10.9c-.8 1.4-.3 3.3 1.2 4.1.5.3 1 .4 1.5.4 1.1 0 2.1-.6 2.6-1.5l6.1-11c1.3 1.1 2.3 2.5 3 4.1 2.7 6.2 0 13.6-6.2 16.4zm10-33.2l.2-.4h26.8l.7 1.7-24 16.9-3.7-18.2zm39.9 34.4c-6.9 0-12.4-5.6-12.4-12.4 0-4.1 2-7.7 5-10l4 9.3c.5 1.1 1.6 1.8 2.8 1.8.4 0 .8-.1 1.2-.2 1.5-.7 2.2-2.4 1.6-3.9l-4-9.2c.6-.1 1.2-.2 1.9-.2 6.9 0 12.4 5.6 12.4 12.4-.1 6.8-5.7 12.4-12.5 12.4z"/><path d="M131 104h-6V25c0-7.2-5.8-13-13-13H28c-7.2 0-13 5.8-13 13v79H9c-1.7 0-3 1.3-3 3s1.3 3 3 3h18c1.7 0 3-1.3 3-3s-1.3-3-3-3h-6V25c0-3.9 3.1-7 7-7h84c3.9 0 7 3.1 7 7v79h-6c-1.7 0-3 1.3-3 3s1.3 3 3 3h18c1.7 0 3-1.3 3-3s-1.3-3-3-3z"/></svg>