<svg version="1.1" id="Слой_1" xmlns="http://www.w3.org/2000/svg" x="0" y="0" viewBox="0 0 125 133" xml:space="preserve"><style/><path d="M116.9 63.6c2.5-2.4 3.3-5.9 2.3-9.2-1.1-3.3-3.8-5.6-7.2-6.1l-27.1-3.9c-.8-.1-1.6-.7-1.9-1.4L70.9 18.5c-1.5-3.1-4.6-5-8-5-3.4 0-6.5 1.9-8 5L42.5 42.9c-.4.8-1.1 1.3-1.9 1.4l-27.1 4c-3.4.5-6.2 2.8-7.2 6.1-1.1 3.3-.2 6.8 2.3 9.2l19.6 19.1c.6.6.9 1.4.7 2.3l-4.6 26.9c-.6 3.4.8 6.8 3.6 8.8 1.6 1.1 3.4 1.7 5.3 1.7 1.4 0 2.9-.4 4.2-1l24.2-12.7c.8-.4 1.7-.4 2.4 0l24.2 12.7c1.3.7 2.7 1 4.2 1 1.9 0 3.7-.6 5.3-1.7 2.8-2 4.1-5.4 3.6-8.8L96.8 85c-.1-.8.1-1.7.7-2.3l19.4-19.1zM90.2 86l4.6 26.9c.2 1-.2 1.9-1 2.5s-1.8.7-2.7.2L67 102.9c-1.3-.7-2.7-1-4.2-1-1.4 0-2.9.4-4.2 1l-24.2 12.7c-.9.5-1.9.4-2.7-.2-.8-.6-1.2-1.5-1-2.5L35.3 86c.5-2.9-.5-5.9-2.6-7.9L13.1 59c-.7-.7-1-1.7-.7-2.6.3-1 1.1-1.6 2.1-1.8l27.1-3.9c2.9-.4 5.5-2.3 6.8-4.9l12.1-24.5c.4-.9 1.3-1.4 2.3-1.4s1.9.5 2.3 1.4l12.1 24.5c1.3 2.7 3.8 4.5 6.8 4.9l27.1 3.9c1 .1 1.8.8 2.1 1.8s.1 1.9-.7 2.6L92.9 78.1c-2.2 2-3.1 5-2.7 7.9z"/></svg>