<svg xmlns="http://www.w3.org/2000/svg" xmlns:xlink="http://www.w3.org/1999/xlink"><symbol id="location" viewBox="0 0 32 32">
<g>
	<g id="map_x5F_pin_x5F_fill">
		<g>
			<g>
				<path style="fill:#030104;" d="M23.07,2.929c-3.906-3.906-10.234-3.906-14.141,0c-3.906,3.904-3.906,10.238,0,14.141
					c0,0,7.066,6.93,7.066,14.93c0-8,7.074-14.93,7.074-14.93C26.977,13.168,26.977,6.833,23.07,2.929z M15.996,14.005
					c-2.207,0-3.996-1.789-3.996-4s1.789-4,3.996-4c2.215,0,4.004,1.789,4.004,4S18.211,14.005,15.996,14.005z"/>
			</g>
		</g>
	</g>
</g>
<g>
</g>
<g>
</g>
<g>
</g>
<g>
</g>
<g>
</g>
<g>
</g>
<g>
</g>
<g>
</g>
<g>
</g>
<g>
</g>
<g>
</g>
<g>
</g>
<g>
</g>
<g>
</g>
<g>
</g>
</symbol><symbol id="menu" viewBox="0 0 150 150">
<g id="XMLID_240_">
	<path id="XMLID_241_" d="M15,30h120c8.284,0,15-6.716,15-15s-6.716-15-15-15H15C6.716,0,0,6.716,0,15S6.716,30,15,30z"/>
	<path id="XMLID_242_" d="M135,60H15C6.716,60,0,66.716,0,75s6.716,15,15,15h120c8.284,0,15-6.716,15-15S143.284,60,135,60z"/>
	<path id="XMLID_243_" d="M135,120H15c-8.284,0-15,6.716-15,15s6.716,15,15,15h120c8.284,0,15-6.716,15-15S143.284,120,135,120z"/>
</g>
<g>
</g>
<g>
</g>
<g>
</g>
<g>
</g>
<g>
</g>
<g>
</g>
<g>
</g>
<g>
</g>
<g>
</g>
<g>
</g>
<g>
</g>
<g>
</g>
<g>
</g>
<g>
</g>
<g>
</g>
</symbol><symbol id="minus" viewBox="0 0 455 455">
<rect y="212.5" width="455" height="30"/>
<g>
</g>
<g>
</g>
<g>
</g>
<g>
</g>
<g>
</g>
<g>
</g>
<g>
</g>
<g>
</g>
<g>
</g>
<g>
</g>
<g>
</g>
<g>
</g>
<g>
</g>
<g>
</g>
<g>
</g>
</symbol><symbol id="plus" viewBox="0 0 455 455">
<polygon points="455,212.5 242.5,212.5 242.5,0 212.5,0 212.5,212.5 0,212.5 0,242.5 212.5,242.5 212.5,455 242.5,455 242.5,242.5 
	455,242.5 "/>
<g>
</g>
<g>
</g>
<g>
</g>
<g>
</g>
<g>
</g>
<g>
</g>
<g>
</g>
<g>
</g>
<g>
</g>
<g>
</g>
<g>
</g>
<g>
</g>
<g>
</g>
<g>
</g>
<g>
</g>
</symbol></svg>