<?xml version="1.0" encoding="utf-8"?>
<!-- Generator: Adobe Illustrator 22.1.0, SVG Export Plug-In . SVG Version: 6.00 Build 0)  -->
<svg version="1.1" id="Слой_1" xmlns="http://www.w3.org/2000/svg" xmlns:xlink="http://www.w3.org/1999/xlink" x="0px" y="0px"
	 viewBox="0 0 100 100" style="enable-background:new 0 0 100 100;" xml:space="preserve">
<style type="text/css">
	.st0{fill:#E3AD3E;}
</style>
<g>
	<g>
		<path class="st0" d="M53,9C37.4,9,24.8,21.6,24.8,37.2S53,93,53,93s28.2-40.2,28.2-55.8S68.6,9,53,9z"/>
		<path d="M53,96.5l-1.6-2.3c-1.2-1.7-28.6-40.9-28.6-56.9C22.8,20.6,36.3,7,53,7s30.2,13.6,30.2,30.2c0,16-27.4,55.3-28.6,56.9
			L53,96.5z M53,11c-14.5,0-26.2,11.8-26.2,26.2c0,6,4.8,17.3,13.8,32.7c4.9,8.4,9.9,15.9,12.4,19.5c2.5-3.7,7.5-11.2,12.4-19.5
			c9-15.4,13.8-26.7,13.8-32.7C79.2,22.8,67.5,11,53,11z"/>
	</g>
	<path d="M43,55.5c-1,0-1.9-0.3-2.8-0.9c-1.5-1.1-2.2-2.8-1.9-4.6l1.4-8.4l-6.1-5.9c-1.3-1.3-1.7-3.1-1.2-4.8c0.6-1.7,2-2.9,3.8-3.2
		l8.4-1.2l3.8-7.6c0.8-1.6,2.4-2.6,4.2-2.6s3.4,1,4.2,2.6l3.8,7.6l8.4,1.2c1.8,0.3,3.2,1.5,3.8,3.2c0.6,1.7,0.1,3.6-1.2,4.8
		l-6.1,5.9L67,50c0.3,1.8-0.4,3.5-1.9,4.6c-1.4,1-3.4,1.2-4.9,0.4l-7.5-4l-7.5,4C44.5,55.3,43.7,55.5,43,55.5z M52.7,19.8
		c-0.5,0-0.9,0.2-1.1,0.7l-4,8c-0.4,0.8-1.1,1.3-2,1.4l-8.9,1.3c-0.5,0.1-0.8,0.4-1,0.8s0,0.9,0.3,1.2l6.4,6.3
		c0.6,0.6,0.9,1.5,0.7,2.3l-1.5,8.8c-0.1,0.5,0.1,0.9,0.5,1.2s0.9,0.3,1.3,0.1l7.9-4.2c0.8-0.4,1.7-0.4,2.4,0l7.9,4.2
		c0.4,0.2,0.9,0.2,1.3-0.1c0.4-0.3,0.6-0.7,0.5-1.2L62,41.8c-0.1-0.8,0.1-1.7,0.7-2.3l6.4-6.3c0.3-0.3,0.4-0.8,0.3-1.2
		c-0.1-0.4-0.5-0.7-1-0.8l-8.9-1.3c-0.8-0.1-1.6-0.7-2-1.4l-4-8C53.5,20,53.1,19.8,52.7,19.8z M52.2,50.8L52.2,50.8L52.2,50.8z
		 M40.1,42L40.1,42L40.1,42z"/>
</g>
</svg>
