<svg version="1.1" id="Слой_1" xmlns="http://www.w3.org/2000/svg" x="0" y="0" viewBox="0 0 100 100" xml:space="preserve"><path d="M53 9C37.4 9 24.8 21.6 24.8 37.2S53 93 53 93s28.2-40.2 28.2-55.8S68.6 9 53 9z" fill="#e3ad3e"/><path d="M53 96.5l-1.6-2.3c-1.2-1.7-28.6-40.9-28.6-56.9C22.8 20.6 36.3 7 53 7s30.2 13.6 30.2 30.2c0 16-27.4 55.3-28.6 56.9L53 96.5zM53 11c-14.5 0-26.2 11.8-26.2 26.2 0 6 4.8 17.3 13.8 32.7 4.9 8.4 9.9 15.9 12.4 19.5 2.5-3.7 7.5-11.2 12.4-19.5 9-15.4 13.8-26.7 13.8-32.7C79.2 22.8 67.5 11 53 11z"/><path d="M43 55.5c-1 0-1.9-.3-2.8-.9-1.5-1.1-2.2-2.8-1.9-4.6l1.4-8.4-6.1-5.9c-1.3-1.3-1.7-3.1-1.2-4.8.6-1.7 2-2.9 3.8-3.2l8.4-1.2 3.8-7.6c.8-1.6 2.4-2.6 4.2-2.6s3.4 1 4.2 2.6l3.8 7.6 8.4 1.2c1.8.3 3.2 1.5 3.8 3.2.6 1.7.1 3.6-1.2 4.8l-6.1 5.9L67 50c.3 1.8-.4 3.5-1.9 4.6-1.4 1-3.4 1.2-4.9.4l-7.5-4-7.5 4c-.7.3-1.5.5-2.2.5zm9.7-35.7c-.5 0-.9.2-1.1.7l-4 8c-.4.8-1.1 1.3-2 1.4l-8.9 1.3c-.5.1-.8.4-1 .8s0 .9.3 1.2l6.4 6.3c.6.6.9 1.5.7 2.3l-1.5 8.8c-.1.5.1.9.5 1.2s.9.3 1.3.1l7.9-4.2c.8-.4 1.7-.4 2.4 0l7.9 4.2c.4.2.9.2 1.3-.1.4-.3.6-.7.5-1.2L62 41.8c-.1-.8.1-1.7.7-2.3l6.4-6.3c.3-.3.4-.8.3-1.2-.1-.4-.5-.7-1-.8l-8.9-1.3c-.8-.1-1.6-.7-2-1.4l-4-8c0-.5-.4-.7-.8-.7zm-.5 31zM40.1 42z"/></svg>