<?xml version="1.0" encoding="utf-8"?>
<!-- Generator: Adobe Illustrator 21.1.0, SVG Export Plug-In . SVG Version: 6.00 Build 0)  -->
<svg version="1.1" id="Слой_1" xmlns="http://www.w3.org/2000/svg" xmlns:xlink="http://www.w3.org/1999/xlink" x="0px" y="0px"
	 viewBox="0 0 90 90" style="enable-background:new 0 0 90 90;" xml:space="preserve">
<path d="M52.7,46.1l31.1-31.1c2.1-2.1,2.1-5.6,0-7.7c-2.1-2.1-5.6-2.1-7.7,0L44.9,38.3L13.8,7.2c-2.1-2.1-5.6-2.1-7.7,0
	C4,9.3,4,12.8,6.1,14.9l31.1,31.1L7,76.3c-2.1,2.1-2.1,5.6,0,7.7c1.1,1.1,2.5,1.6,3.9,1.6s2.8-0.5,3.9-1.6l30.2-30.2L75.2,84
	c1.1,1.1,2.5,1.6,3.9,1.6s2.8-0.5,3.9-1.6c2.1-2.1,2.1-5.6,0-7.7L52.7,46.1z"/>
</svg>
