<?xml version="1.0" encoding="utf-8"?>
<!-- Generator: Adobe Illustrator 21.1.0, SVG Export Plug-In . SVG Version: 6.00 Build 0)  -->
<svg version="1.1" id="Слой_1" xmlns="http://www.w3.org/2000/svg" xmlns:xlink="http://www.w3.org/1999/xlink" x="0px" y="0px"
	 viewBox="0 0 100 100" style="enable-background:new 0 0 100 100;" xml:space="preserve">
<style type="text/css">
	.st0{fill:#E3AD3E;}
</style>
<g>
	<path class="st0" d="M51,9C35.4,9,22.8,21.6,22.8,37.2S51,93,51,93s28.2-40.2,28.2-55.8S66.6,9,51,9z"/>
	<path d="M51,96.5l-1.6-2.3c-1.2-1.7-28.6-40.9-28.6-56.9C20.8,20.6,34.3,7,51,7s30.2,13.6,30.2,30.2c0,16-27.4,55.3-28.6,56.9
		L51,96.5z M51,11c-14.5,0-26.2,11.8-26.2,26.2c0,6,4.8,17.3,13.8,32.7c4.9,8.4,9.9,15.9,12.4,19.5c2.5-3.7,7.5-11.2,12.4-19.5
		c9-15.4,13.8-26.7,13.8-32.7C77.2,22.8,65.5,11,51,11z"/>
</g>
<g>
	<path d="M63.4,30.5c-0.7,0-1.3,0.1-2,0.2l-3.6-8.2h3c0.8,0,1.4-0.6,1.4-1.4c0-0.8-0.6-1.4-1.4-1.4h-5.1c-0.5,0-0.9,0.2-1.1,0.6
		c-0.3,0.4-0.3,0.9-0.1,1.3l1.9,4.3H44.6L44,22.8c-0.2-0.7-0.9-1.2-1.6-1.1c-0.7,0.2-1.2,0.9-1.1,1.6l1.1,5.1L41,31
		c-2.1-0.7-4.3-0.6-6.2,0.3c-4.2,1.9-6.1,7-4.1,11.2c0.9,2,2.6,3.6,4.7,4.4c0.9,0.4,1.9,0.5,2.9,0.5c1.2,0,2.4-0.3,3.5-0.8
		c2.5-1.1,4.1-3.3,4.7-5.8c0.1,0,0.3-0.1,0.4-0.2L57,33.5c-1.2,1.5-2,3.4-2,5.4c0,4.6,3.8,8.4,8.4,8.4c4.6,0,8.4-3.8,8.4-8.4
		S68.1,30.5,63.4,30.5z M40.7,44.1c-1.4,0.6-2.9,0.7-4.3,0.2c-1.4-0.5-2.6-1.6-3.2-3c-1.3-2.8-0.1-6.2,2.8-7.5
		c1.2-0.5,2.5-0.7,3.7-0.4l-2.8,5c-0.4,0.7-0.1,1.5,0.5,1.9c0.2,0.1,0.4,0.2,0.7,0.2c0.5,0,0.9-0.3,1.2-0.7l2.8-5
		c0.6,0.5,1,1.1,1.4,1.9C44.7,39.4,43.5,42.8,40.7,44.1z M45.3,28.9l0.1-0.2h12.2c0,0,0.1,0,0.1,0l0.3,0.8l-11,7.7L45.3,28.9z
		 M63.4,44.6c-3.1,0-5.7-2.5-5.7-5.7c0-1.9,0.9-3.5,2.3-4.6l1.8,4.3c0.2,0.5,0.7,0.8,1.3,0.8c0.2,0,0.4,0,0.5-0.1
		c0.7-0.3,1-1.1,0.7-1.8l-1.8-4.2c0.3,0,0.6-0.1,0.9-0.1c3.1,0,5.7,2.5,5.7,5.7C69.1,42.1,66.6,44.6,63.4,44.6z"/>
</g>
<g>
	<g>
		<path class="st0" d="M250-17c-15.6,0-28.2,12.6-28.2,28.2S250,67,250,67s28.2-40.2,28.2-55.8S265.6-17,250-17z"/>
		<path d="M250,70.5l-1.6-2.3c-1.2-1.7-28.6-40.9-28.6-56.9C219.8-5.4,233.3-19,250-19s30.2,13.6,30.2,30.2
			c0,16-27.4,55.3-28.6,56.9L250,70.5z M250-15c-14.5,0-26.2,11.8-26.2,26.2c0,6,4.8,17.3,13.8,32.7c4.9,8.4,9.9,15.9,12.4,19.5
			c2.5-3.7,7.5-11.2,12.4-19.5c9-15.4,13.8-26.7,13.8-32.7C276.2-3.2,264.5-15,250-15z"/>
	</g>
	<path d="M240,29.5c-1,0-1.9-0.3-2.8-0.9c-1.5-1.1-2.2-2.8-1.9-4.6l1.4-8.4l-6.1-5.9c-1.3-1.3-1.7-3.1-1.2-4.8
		c0.6-1.7,2-2.9,3.8-3.2l8.4-1.2l3.8-7.6c0.8-1.6,2.4-2.6,4.2-2.6s3.4,1,4.2,2.6l3.8,7.6l8.4,1.2c1.8,0.3,3.2,1.5,3.8,3.2
		c0.6,1.7,0.1,3.6-1.2,4.8l-6.1,5.9L264,24c0.3,1.8-0.4,3.5-1.9,4.6c-1.4,1-3.4,1.2-4.9,0.4l-7.5-4l-7.5,4
		C241.5,29.3,240.7,29.5,240,29.5z M249.7-6.2c-0.5,0-0.9,0.2-1.1,0.7l-4,8c-0.4,0.8-1.1,1.3-2,1.4l-8.9,1.3c-0.5,0.1-0.8,0.4-1,0.8
		s0,0.9,0.3,1.2l6.4,6.3c0.6,0.6,0.9,1.5,0.7,2.3l-1.5,8.8c-0.1,0.5,0.1,0.9,0.5,1.2c0.4,0.3,0.9,0.3,1.3,0.1l7.9-4.2
		c0.8-0.4,1.7-0.4,2.4,0l7.9,4.2c0.4,0.2,0.9,0.2,1.3-0.1c0.4-0.3,0.6-0.7,0.5-1.2l-1.5-8.8c-0.1-0.8,0.1-1.7,0.7-2.3l6.4-6.3
		c0.3-0.3,0.4-0.8,0.3-1.2c-0.1-0.4-0.5-0.7-1-0.8l-8.9-1.3c-0.8-0.1-1.6-0.7-2-1.4l-4-8C250.5-6,250.1-6.2,249.7-6.2z M249.2,24.8
		C249.2,24.8,249.2,24.8,249.2,24.8L249.2,24.8z M237.1,16C237.1,16,237.1,16,237.1,16L237.1,16z"/>
</g>
<g>
	<g>
		<path class="st0" d="M188,50.8c-14.9,0-27,12.1-27,27s27,53.4,27,53.4s27-38.5,27-53.4S202.9,50.8,188,50.8z"/>
		<path d="M188,136.5l-1.6-2.3c-1.2-1.7-28.6-40.9-28.6-56.9c0-16.7,13.6-30.2,30.2-30.2s30.2,13.6,30.2,30.2
			c0,16-27.4,55.3-28.6,56.9L188,136.5z M188,51c-14.5,0-26.2,11.8-26.2,26.2c0,6,4.8,17.3,13.8,32.7c4.9,8.4,9.9,15.9,12.4,19.5
			c2.5-3.7,7.5-11.2,12.4-19.5c9-15.4,13.8-26.7,13.8-32.7C214.2,62.8,202.5,51,188,51z"/>
	</g>
	<g>
		<path d="M205.7,75.8c-1.1,0.8-2.6,0.8-3.1,0.6l-0.2-0.1l-0.9,2.3l0.2,0.1c0.5,0.2,1,0.3,1.6,0.3c1.3,0,2.7-0.4,3.8-1.1
			c1.5-1,2.4-2.6,2.4-4.5c0-3-2.5-5.5-5.5-5.5h-0.2v2.5h0.2c1.6,0,2.9,1.3,2.9,2.9C206.9,74.4,206.5,75.2,205.7,75.8z"/>
		<path d="M201.2,80l-0.1,0l-1.7,2.1l0.4,0.1c3.4,0.5,5.2,1.3,5.9,1.6c-1.4,0.8-7,2.2-17.4,2.2c-0.1,0-0.1,0-0.2,0
			c-10.6,0-16.2-1.5-17.6-2.3c0.6-0.4,2.5-1.1,7.3-1.7c2.6,2.3,6,3.5,10.2,3.5c4.6,0,8.3-1.4,10.9-4.1c3.4-3.5,4.9-9,4.7-16.2
			c0-0.2,0-0.3,0-0.4c0-4.1-13-4.3-15.6-4.3s-15.6,0.2-15.6,4.3c0,0.1,0,0.2,0,0.3l0,0.1c-0.2,6.2,0.9,11.1,3.3,14.6
			c-5.4,0.8-8,2.1-8,4c0,1.7,2,2.9,6.6,3.8c3.7,0.7,8.6,1.1,13.8,1.1c0.1,0,0.1,0,0.2,0c5.1,0,9.9-0.4,13.6-1c4.6-0.8,6.7-2,6.7-3.7
			C208.5,82.1,206,80.8,201.2,80z M187.8,69c1.5,0,9.1-0.1,13.1-1.7c-0.1,5.5-1.4,9.6-4,12.3c-2.2,2.2-5.2,3.4-9.1,3.4
			s-6.9-1.1-9.1-3.4c-2.6-2.7-3.9-6.8-4-12.3C178.7,68.9,186.3,69,187.8,69z M175.1,64.7c1.2-0.7,5.3-1.8,12.8-1.8
			c7.4,0,11.5,1.1,12.8,1.8c-1.2,0.7-5.3,1.8-12.8,1.8C180.4,66.5,176.3,65.4,175.1,64.7z"/>
	</g>
</g>
</svg>
