<?xml version="1.0" encoding="utf-8"?>
<!-- Generator: Adobe Illustrator 21.1.0, SVG Export Plug-In . SVG Version: 6.00 Build 0)  -->
<svg version="1.1" id="Слой_1" xmlns="http://www.w3.org/2000/svg" xmlns:xlink="http://www.w3.org/1999/xlink" x="0px" y="0px"
	 viewBox="0 0 70 70" style="enable-background:new 0 0 70 70;" xml:space="preserve">
<path d="M60,5.9c-0.7-1-2-1.2-3-0.5c-4.2,3-7.3,6.1-9.9,9.6H18.3C13.2,15,9,19.2,9,24.3v31.4c0,5.1,4.2,9.3,9.3,9.3h31.4
	c5.1,0,9.3-4.2,9.3-9.3V24.3c0-4.2-2.8-7.8-6.7-8.9c2-2.3,4.3-4.4,7.2-6.5C60.5,8.2,60.7,6.8,60,5.9z M49.7,19.3c2.8,0,5,2.2,5,5
	v31.4c0,2.8-2.2,5-5,5H18.3c-2.8,0-5-2.2-5-5V24.3c0-2.8,2.2-5,5-5h26.1c-3.6,6.4-6.3,14.5-10.2,26.3c-0.3,0.8-0.6,1.7-0.8,2.5
	L20.8,29.5c-0.7-1-2-1.2-3-0.6c-1,0.7-1.2,2-0.6,3l15,22.1c0.4,0.6,1.1,0.9,1.8,0.9c0.1,0,0.2,0,0.3,0c0.8-0.1,1.5-0.7,1.7-1.4
	c0.8-2.3,1.5-4.5,2.2-6.6c4.4-13.2,7.1-21.4,11.2-27.6H49.7z"/>
</svg>
