<?xml version="1.0" encoding="utf-8"?>
<!-- Generator: Adobe Illustrator 22.1.0, SVG Export Plug-In . SVG Version: 6.00 Build 0)  -->
<svg version="1.1" id="Слой_1" xmlns="http://www.w3.org/2000/svg" xmlns:xlink="http://www.w3.org/1999/xlink" x="0px" y="0px"
	 viewBox="0 0 140 120" style="enable-background:new 0 0 140 120;" xml:space="preserve">
<style type="text/css">
	.st0{opacity:0.5;fill:#FBAE17;enable-background:new    ;}
</style>
<g>
	<path d="M97.6,53.7c-1.5,0-2.9,0.2-4.3,0.5l-7.8-18H92c1.7,0,3-1.3,3-3s-1.3-3-3-3H80.9c-1,0-2,0.5-2.5,1.4s-0.6,1.9-0.2,2.8
		l4.1,9.4H56.5l-1.5-7c-0.3-1.6-1.9-2.7-3.5-2.3c-1.6,0.3-2.7,1.9-2.3,3.5l2.3,11.2l-3,5.5c-4.5-1.5-9.3-1.3-13.7,0.7
		c-9.2,4.3-13.3,15.2-9,24.5c2.1,4.5,5.7,7.9,10.4,9.6c2.1,0.8,4.2,1.1,6.4,1.1c2.6,0,5.3-0.6,7.7-1.7c5.4-2.5,9-7.2,10.2-12.6
		c0.3-0.1,0.6-0.2,0.8-0.4l22.3-15.6c-2.7,3.2-4.4,7.4-4.4,11.9c0,10.2,8.3,18.4,18.4,18.4c10.2,0,18.4-8.3,18.4-18.4
		S107.7,53.7,97.6,53.7z M47.7,83.4c-3,1.4-6.4,1.5-9.5,0.4s-5.6-3.4-7-6.5c-2.9-6.2-0.1-13.6,6.1-16.5c2.6-1.2,5.4-1.5,8.2-0.8
		l-6,10.9c-0.8,1.4-0.3,3.3,1.2,4.1c0.5,0.3,1,0.4,1.5,0.4c1.1,0,2.1-0.6,2.6-1.5l6.1-11c1.3,1.1,2.3,2.5,3,4.1
		C56.6,73.2,53.9,80.6,47.7,83.4z M57.7,50.2l0.2-0.4h26.6c0.1,0,0.1,0,0.2,0l0.7,1.7l-24,16.9L57.7,50.2z M97.6,84.6
		c-6.9,0-12.4-5.6-12.4-12.4c0-4.1,2-7.7,5-10l4,9.3c0.5,1.1,1.6,1.8,2.8,1.8c0.4,0,0.8-0.1,1.2-0.2c1.5-0.7,2.2-2.4,1.6-3.9l-4-9.2
		c0.6-0.1,1.2-0.2,1.9-0.2c6.9,0,12.4,5.6,12.4,12.4C110,79,104.4,84.6,97.6,84.6z"/>
	<path d="M131,104h-6V25c0-7.2-5.8-13-13-13H28c-7.2,0-13,5.8-13,13v79H9c-1.7,0-3,1.3-3,3s1.3,3,3,3h18c1.7,0,3-1.3,3-3s-1.3-3-3-3
		h-6V25c0-3.9,3.1-7,7-7h84c3.9,0,7,3.1,7,7v79h-6c-1.7,0-3,1.3-3,3s1.3,3,3,3h18c1.7,0,3-1.3,3-3S132.7,104,131,104z"/>
</g>
</svg>
