<svg xmlns="http://www.w3.org/2000/svg" viewBox="0 0 64 64"><path d="M38 18H26c-1.1 0-2 .9-2 2v1h16v-1c0-1.1-.9-2-2-2zM26 46h11v-9H26v9zm15-17c.6 0 1-.4 1-1s-.4-1-1-1-1 .4-1 1 .4 1 1 1zM32 0C14.3 0 0 14.3 0 32s14.3 32 32 32 32-14.3 32-32S49.7 0 32 0zm7 46c0 1.1-.9 2-2 2H26c-1.1 0-2-.9-2-2v-9c0-1.1.9-2 2-2h11c1.1 0 2 .9 2 2v9zm-1-18c0-1.7 1.3-3 3-3s3 1.3 3 3-1.3 3-3 3-3-1.3-3-3zm10 9c0 2.2-1.8 4-4 4h-3v-2h3c1.1 0 2-.9 2-2V25c0-1.1-.9-2-2-2H20c-1.1 0-2 .9-2 2v12c0 1.1.9 2 2 2h2v2h-2c-2.2 0-4-1.8-4-4V25c0-2.2 1.8-4 4-4h2v-1c0-2.2 1.8-4 4-4h12c2.2 0 4 1.8 4 4v1h2c2.2 0 4 1.8 4 4v12z" fill="#62665e"/></svg>