<?xml version="1.0" encoding="utf-8"?>
<!-- Generator: Adobe Illustrator 22.1.0, SVG Export Plug-In . SVG Version: 6.00 Build 0)  -->
<svg version="1.1" id="Слой_1" xmlns="http://www.w3.org/2000/svg" xmlns:xlink="http://www.w3.org/1999/xlink" x="0px" y="0px"
	 viewBox="0 0 125 133" style="enable-background:new 0 0 125 133;" xml:space="preserve">
<style type="text/css">
	.st0{opacity:0.5;fill:#FBAE17;enable-background:new    ;}
</style>
<path d="M116.9,63.6c2.5-2.4,3.3-5.9,2.3-9.2c-1.1-3.3-3.8-5.6-7.2-6.1l-27.1-3.9c-0.8-0.1-1.6-0.7-1.9-1.4L70.9,18.5
	c-1.5-3.1-4.6-5-8-5c-3.4,0-6.5,1.9-8,5L42.5,42.9c-0.4,0.8-1.1,1.3-1.9,1.4l-27.1,4c-3.4,0.5-6.2,2.8-7.2,6.1
	c-1.1,3.3-0.2,6.8,2.3,9.2l19.6,19.1c0.6,0.6,0.9,1.4,0.7,2.3l-4.6,26.9c-0.6,3.4,0.8,6.8,3.6,8.8c1.6,1.1,3.4,1.7,5.3,1.7
	c1.4,0,2.9-0.4,4.2-1l24.2-12.7c0.8-0.4,1.7-0.4,2.4,0l24.2,12.7c1.3,0.7,2.7,1,4.2,1c1.9,0,3.7-0.6,5.3-1.7c2.8-2,4.1-5.4,3.6-8.8
	L96.8,85c-0.1-0.8,0.1-1.7,0.7-2.3L116.9,63.6z M90.2,86L90.2,86l4.6,26.9c0.2,1-0.2,1.9-1,2.5s-1.8,0.7-2.7,0.2L67,102.9
	c-1.3-0.7-2.7-1-4.2-1c-1.4,0-2.9,0.4-4.2,1l-24.2,12.7c-0.9,0.5-1.9,0.4-2.7-0.2c-0.8-0.6-1.2-1.5-1-2.5L35.3,86
	c0.5-2.9-0.5-5.9-2.6-7.9L13.1,59c-0.7-0.7-1-1.7-0.7-2.6c0.3-1,1.1-1.6,2.1-1.8l27.1-3.9c2.9-0.4,5.5-2.3,6.8-4.9l12.1-24.5
	c0.4-0.9,1.3-1.4,2.3-1.4s1.9,0.5,2.3,1.4l12.1,24.5c1.3,2.7,3.8,4.5,6.8,4.9l27.1,3.9c1,0.1,1.8,0.8,2.1,1.8s0.1,1.9-0.7,2.6
	L92.9,78.1C90.7,80.1,89.8,83.1,90.2,86z"/>
</svg>
