<svg version="1.0" xmlns="http://www.w3.org/2000/svg" width="513.333" height="513.333" viewBox="0 0 385 385"><path d="M183.5 8.6c-24.4 5-40.8 16.9-50.8 36.9-6.7 13.5-7.7 19.1-10.7 60-1.7 22.2-4.3 32.8-12.6 50.4-9 19.1-22.2 35.4-38.9 48.1-5.2 4-9.5 7.3-9.5 7.4 0 0 5.1.2 11.3.2 16.5.2 27.4 3.4 50.7 15l18.5 9.2 2.2-8.2c8.8-33.1 27.6-57.7 61.4-80.3 26.1-17.4 29.2-19.9 37-29.4 5.5-6.8 12.4-20.3 14.4-28.4 3-11.9 1.4-29.5-3.9-41.9-6.2-14.7-20.2-28.2-35.6-34.4-10.3-4.1-25.4-6.2-33.5-4.6zm24.3 25.9c8.4 3.2 18.4 11.6 21.9 18.6 11.5 23.1 3.3 48.9-19.1 59.8-5.9 2.9-8.3 3.5-16.1 3.9-10.6.5-16.8-1-25-6.3-10.5-6.9-16.5-15.2-19.1-26.6-5.6-24.6 9.8-47.1 35.6-52.2 5-1 14.7.2 21.8 2.8z"/><path d="M183.5 41.9c-8.5 2.2-17.6 9.8-21.7 17.9-1.9 4-2.3 6.3-2.3 14.7 0 8.9.3 10.5 2.7 15 4.5 8.5 11.7 14.2 21.3 17.1 22.9 6.6 46.1-14.6 41.5-37.9-3.2-16.4-14.9-26.7-31-27.3-4.1-.2-8.8 0-10.5.5zm75.8 71.4c-3.3 6.9-13.5 18.9-21.4 25.4-4.1 3.2-14 10.3-22.2 15.7l-14.7 9.8 7.5 8c13.8 14.7 24.5 33.1 30.4 52.4 3.8 12.8 4.8 19.3 6.6 45.4 1.9 27.9 5.1 40.9 13.4 53.7 9.4 14.6 20.4 22.9 37.6 28.3 5.2 1.6 9.7 2.2 17.5 2.3 12.9.1 18.9-1.2 30.6-6.9 32.2-15.4 45.6-54.9 29.8-88.1-7-14.8-16.3-23.9-41.6-40.9-10.3-6.9-22.4-15.8-27-19.8-14.5-12.6-27.9-32.5-35.1-51.6-3.8-10.3-7.7-27.3-7.7-33.9 0-2.3-.4-4.1-.8-4.1s-1.7 1.9-2.9 4.3zm74 136.7c21.3 10.5 30.5 36.6 20.1 57.2-3.2 6.2-11.1 14.9-16.8 18.2-10.1 5.9-23.8 7.2-34.8 3.4-8.4-2.8-12.5-5.5-18.2-11.9-12.3-13.7-14.8-31.1-6.7-47.3 3.5-6.9 5.6-9.5 12.2-14.8 8.4-6.9 14.9-8.8 27.9-8.4 8.5.2 10.4.7 16.3 3.6z"/><path d="M306 255.9c-12.5 3.9-21.2 13.4-24 26.3-4.3 19.5 12.5 39.8 33 39.8 13 0 26.6-9.1 31.1-20.9 2.5-6.4 3-16.3 1.1-22.7-2.8-9.7-12-18.9-21.6-21.9-5.2-1.6-15.3-1.9-19.6-.6zM54 224.4c-18.5 4.2-35 17.3-44 34.9-5 10-6.9 18.2-7 30.3-.1 31.5 21.6 58.1 52.5 64.5 10.8 2.2 16.4 2.3 27 .4 11.4-2 20.5-5.5 40.5-15.6 22.7-11.5 31.8-14.8 48.5-17.4 23.8-3.8 51.9-.1 73.8 9.9 3.1 1.4 5.7 2.4 5.7 2.3 0-.2-2.4-5-5.3-10.8-8-15.7-10.1-26.4-12.1-62.2-.2-4.3-.6-8-.8-8.2-.1-.2-4.3.8-9.3 2.1-16.6 4.5-44.9 4.7-61.8.4-10.8-2.7-23.1-7.7-40.8-16.6-17.4-8.7-25.4-11.9-35.1-13.9-8.2-1.8-24.1-1.8-31.8-.1zm27.5 24.3c6.3 2.1 8.4 3.2 13.7 7.3 9.2 7.1 14.3 16 15.8 27.8 1.8 13.7-2.4 25.7-12.1 35.3-21.2 20.9-54.5 15-68-12-3.2-6.3-3.3-7.2-3.4-17.6 0-10.8.1-11.3 3.8-18.7 5.4-11 14.4-18.6 26.2-22.4 5.8-1.8 18.2-1.7 24 .3z"/><path d="M60.8 256.4c-9.8 2.8-15.8 7.7-21.6 17.4-2.5 4.3-2.7 5.6-2.7 15.2 0 9.1.3 11.1 2.4 15.2 3.3 6.5 9.6 12.6 16.1 15.7 7.9 3.7 20.1 3.7 28 0 8-3.8 13.3-8.9 16.5-16.1 6.8-15.1 3.1-30.8-9.6-41-8.1-6.5-19.8-9-29.1-6.4z"/></svg>