<?xml version="1.0" standalone="no"?>
<!DOCTYPE svg PUBLIC "-//W3C//DTD SVG 20010904//EN"
 "http://www.w3.org/TR/2001/REC-SVG-20010904/DTD/svg10.dtd">
<svg version="1.0" xmlns="http://www.w3.org/2000/svg"
 width="385.000000pt" height="385.000000pt" viewBox="0 0 385.000000 385.000000"
 preserveAspectRatio="xMidYMid meet">
<metadata>
Created by potrace 1.11, written by Peter Selinger 2001-2013
</metadata>
<g transform="translate(0.000000,385.000000) scale(0.100000,-0.100000)"
fill="#000000" stroke="none">
<path d="M1835 3764 c-244 -50 -408 -169 -508 -369 -67 -135 -77 -191 -107
-600 -17 -222 -43 -328 -126 -504 -90 -191 -222 -354 -389 -481 -52 -40 -95
-73 -95 -74 0 0 51 -2 113 -2 165 -2 274 -34 507 -150 l185 -92 22 82 c88 331
276 577 614 803 261 174 292 199 370 294 55 68 124 203 144 284 30 119 14 295
-39 419 -62 147 -202 282 -356 344 -103 41 -254 62 -335 46z m243 -259 c84
-32 184 -116 219 -186 115 -231 33 -489 -191 -598 -59 -29 -83 -35 -161 -39
-106 -5 -168 10 -250 63 -105 69 -165 152 -191 266 -56 246 98 471 356 522 50
10 147 -2 218 -28z"/>
<path d="M1835 3431 c-85 -22 -176 -98 -217 -179 -19 -40 -23 -63 -23 -147 0
-89 3 -105 27 -150 45 -85 117 -142 213 -171 229 -66 461 146 415 379 -32 164
-149 267 -310 273 -41 2 -88 0 -105 -5z"/>
<path d="M2593 2717 c-33 -69 -135 -189 -214 -254 -41 -32 -140 -103 -222
-157 l-147 -98 75 -80 c138 -147 245 -331 304 -524 38 -128 48 -193 66 -454
19 -279 51 -409 134 -537 94 -146 204 -229 376 -283 52 -16 97 -22 175 -23
129 -1 189 12 306 69 322 154 456 549 298 881 -70 148 -163 239 -416 409 -103
69 -224 158 -270 198 -145 126 -279 325 -351 516 -38 103 -77 273 -77 339 0
23 -4 41 -8 41 -4 0 -17 -19 -29 -43z m740 -1367 c213 -105 305 -366 201 -572
-32 -62 -111 -149 -168 -182 -101 -59 -238 -72 -348 -34 -84 28 -125 55 -182
119 -123 137 -148 311 -67 473 35 69 56 95 122 148 84 69 149 88 279 84 85 -2
104 -7 163 -36z"/>
<path d="M3060 1291 c-125 -39 -212 -134 -240 -263 -43 -195 125 -398 330
-398 130 0 266 91 311 209 25 64 30 163 11 227 -28 97 -120 189 -216 219 -52
16 -153 19 -196 6z"/>
<path d="M540 1606 c-185 -42 -350 -173 -440 -349 -50 -100 -69 -182 -70 -303
-1 -315 216 -581 525 -645 108 -22 164 -23 270 -4 114 20 205 55 405 156 227
115 318 148 485 174 238 38 519 1 738 -99 31 -14 57 -24 57 -23 0 2 -24 50
-53 108 -80 157 -101 264 -121 622 -2 43 -6 80 -8 82 -1 2 -43 -8 -93 -21
-166 -45 -449 -47 -618 -4 -108 27 -231 77 -408 166 -174 87 -254 119 -351
139 -82 18 -241 18 -318 1z m275 -243 c63 -21 84 -32 137 -73 92 -71 143 -160
158 -278 18 -137 -24 -257 -121 -353 -212 -209 -545 -150 -680 120 -32 63 -33
72 -34 176 0 108 1 113 38 187 54 110 144 186 262 224 58 18 182 17 240 -3z"/>
<path d="M608 1286 c-98 -28 -158 -77 -216 -174 -25 -43 -27 -56 -27 -152 0
-91 3 -111 24 -152 33 -65 96 -126 161 -157 79 -37 201 -37 280 0 80 38 133
89 165 161 68 151 31 308 -96 410 -81 65 -198 90 -291 64z"/>
</g>
</svg>
